<svg width="19" height="21" viewBox="0 0 19 21" fill="none" xmlns="http://www.w3.org/2000/svg">
<g clip-path="url(#clip0_139_18960)">
<path d="M0 6.5625C0 5.8275 0.597054 5.25 1.35714 5.25C2.11723 5.25 2.71429 5.8275 2.71429 6.5625C2.71429 7.2975 2.11723 7.875 1.35714 7.875C0.597054 7.875 0 7.2975 0 6.5625ZM0 9.1875C0 8.4525 0.597054 7.875 1.35714 7.875C2.11723 7.875 2.71429 8.4525 2.71429 9.1875C2.71429 9.9225 2.11723 10.5 1.35714 10.5C0.597054 10.5 0 9.9225 0 9.1875ZM0 11.8125C0 11.0775 0.597054 10.5 1.35714 10.5C2.11723 10.5 2.71429 11.0775 2.71429 11.8125C2.71429 12.5475 2.11723 13.125 1.35714 13.125C0.597054 13.125 0 12.5475 0 11.8125ZM0 14.4375C0 13.7025 0.597054 13.125 1.35714 13.125C2.11723 13.125 2.71429 13.7025 2.71429 14.4375C2.71429 15.1725 2.11723 15.75 1.35714 15.75C0.597054 15.75 0 15.1725 0 14.4375ZM2.71429 3.9375C2.71429 3.2025 3.31134 2.625 4.07143 2.625C4.83152 2.625 5.42857 3.2025 5.42857 3.9375C5.42857 4.6725 4.83152 5.25 4.07143 5.25C3.31134 5.25 2.71429 4.6725 2.71429 3.9375ZM2.71429 6.5625C2.71429 5.8275 3.31134 5.25 4.07143 5.25C4.83152 5.25 5.42857 5.8275 5.42857 6.5625C5.42857 7.2975 4.83152 7.875 4.07143 7.875C3.31134 7.875 2.71429 7.2975 2.71429 6.5625ZM2.71429 9.1875C2.71429 8.4525 3.31134 7.875 4.07143 7.875C4.83152 7.875 5.42857 8.4525 5.42857 9.1875C5.42857 9.9225 4.83152 10.5 4.07143 10.5C3.31134 10.5 2.71429 9.9225 2.71429 9.1875ZM2.71429 11.8125C2.71429 11.0775 3.31134 10.5 4.07143 10.5C4.83152 10.5 5.42857 11.0775 5.42857 11.8125C5.42857 12.5475 4.83152 13.125 4.07143 13.125C3.31134 13.125 2.71429 12.5475 2.71429 11.8125ZM2.71429 14.4375C2.71429 13.7025 3.31134 13.125 4.07143 13.125C4.83152 13.125 5.42857 13.7025 5.42857 14.4375C5.42857 15.1725 4.83152 15.75 4.07143 15.75C3.31134 15.75 2.71429 15.1725 2.71429 14.4375ZM2.71429 17.0625C2.71429 16.3275 3.31134 15.75 4.07143 15.75C4.83152 15.75 5.42857 16.3275 5.42857 17.0625C5.42857 17.7975 4.83152 18.375 4.07143 18.375C3.31134 18.375 2.71429 17.7975 2.71429 17.0625ZM5.42857 1.3125C5.42857 0.5775 6.02563 0 6.78571 0C7.5458 0 8.14286 0.5775 8.14286 1.3125C8.14286 2.0475 7.5458 2.625 6.78571 2.625C6.02563 2.625 5.42857 2.0475 5.42857 1.3125ZM5.42857 3.9375C5.42857 3.2025 6.02563 2.625 6.78571 2.625C7.5458 2.625 8.14286 3.2025 8.14286 3.9375C8.14286 4.6725 7.5458 5.25 6.78571 5.25C6.02563 5.25 5.42857 4.6725 5.42857 3.9375ZM5.42857 6.5625C5.42857 5.8275 6.02563 5.25 6.78571 5.25C7.5458 5.25 8.14286 5.8275 8.14286 6.5625C8.14286 7.2975 7.5458 7.875 6.78571 7.875C6.02563 7.875 5.42857 7.2975 5.42857 6.5625ZM5.42857 14.4375C5.42857 13.7025 6.02563 13.125 6.78571 13.125C7.5458 13.125 8.14286 13.7025 8.14286 14.4375C8.14286 15.1725 7.5458 15.75 6.78571 15.75C6.02563 15.75 5.42857 15.1725 5.42857 14.4375ZM5.42857 17.0625C5.42857 16.3275 6.02563 15.75 6.78571 15.75C7.5458 15.75 8.14286 16.3275 8.14286 17.0625C8.14286 17.7975 7.5458 18.375 6.78571 18.375C6.02563 18.375 5.42857 17.7975 5.42857 17.0625ZM5.42857 19.6875C5.42857 18.9525 6.02563 18.375 6.78571 18.375C7.5458 18.375 8.14286 18.9525 8.14286 19.6875C8.14286 20.4225 7.5458 21 6.78571 21C6.02563 21 5.42857 20.4225 5.42857 19.6875ZM8.14286 1.3125C8.14286 0.5775 8.73991 0 9.5 0C10.2601 0 10.8571 0.5775 10.8571 1.3125C10.8571 2.0475 10.2601 2.625 9.5 2.625C8.73991 2.625 8.14286 2.0475 8.14286 1.3125ZM8.14286 3.9375C8.14286 3.2025 8.73991 2.625 9.5 2.625C10.2601 2.625 10.8571 3.2025 10.8571 3.9375C10.8571 4.6725 10.2601 5.25 9.5 5.25C8.73991 5.25 8.14286 4.6725 8.14286 3.9375ZM8.14286 17.0625C8.14286 16.3275 8.73991 15.75 9.5 15.75C10.2601 15.75 10.8571 16.3275 10.8571 17.0625C10.8571 17.7975 10.2601 18.375 9.5 18.375C8.73991 18.375 8.14286 17.7975 8.14286 17.0625ZM8.14286 19.6875C8.14286 18.9525 8.73991 18.375 9.5 18.375C10.2601 18.375 10.8571 18.9525 10.8571 19.6875C10.8571 20.4225 10.2601 21 9.5 21C8.73991 21 8.14286 20.4225 8.14286 19.6875ZM10.8571 1.3125C10.8571 0.5775 11.4542 0 12.2143 0C12.9744 0 13.5714 0.5775 13.5714 1.3125C13.5714 2.0475 12.9744 2.625 12.2143 2.625C11.4542 2.625 10.8571 2.0475 10.8571 1.3125ZM10.8571 3.9375C10.8571 3.2025 11.4542 2.625 12.2143 2.625C12.9744 2.625 13.5714 3.2025 13.5714 3.9375C13.5714 4.6725 12.9744 5.25 12.2143 5.25C11.4542 5.25 10.8571 4.6725 10.8571 3.9375ZM10.8571 17.0625C10.8571 16.3275 11.4542 15.75 12.2143 15.75C12.9744 15.75 13.5714 16.3275 13.5714 17.0625C13.5714 17.7975 12.9744 18.375 12.2143 18.375C11.4542 18.375 10.8571 17.7975 10.8571 17.0625ZM10.8571 19.6875C10.8571 18.9525 11.4542 18.375 12.2143 18.375C12.9744 18.375 13.5714 18.9525 13.5714 19.6875C13.5714 20.4225 12.9744 21 12.2143 21C11.4542 21 10.8571 20.4225 10.8571 19.6875ZM13.5714 1.3125C13.5714 0.5775 14.1685 0 14.9286 0C15.6887 0 16.2857 0.5775 16.2857 1.3125C16.2857 2.0475 15.6887 2.625 14.9286 2.625C14.1685 2.625 13.5714 2.0475 13.5714 1.3125ZM13.5714 3.9375C13.5714 3.2025 14.1685 2.625 14.9286 2.625C15.6887 2.625 16.2857 3.2025 16.2857 3.9375C16.2857 4.6725 15.6887 5.25 14.9286 5.25C14.1685 5.25 13.5714 4.6725 13.5714 3.9375ZM13.5714 6.5625C13.5714 5.8275 14.1685 5.25 14.9286 5.25C15.6887 5.25 16.2857 5.8275 16.2857 6.5625C16.2857 7.2975 15.6887 7.875 14.9286 7.875C14.1685 7.875 13.5714 7.2975 13.5714 6.5625ZM13.5714 14.4375C13.5714 13.7025 14.1685 13.125 14.9286 13.125C15.6887 13.125 16.2857 13.7025 16.2857 14.4375C16.2857 15.1725 15.6887 15.75 14.9286 15.75C14.1685 15.75 13.5714 15.1725 13.5714 14.4375ZM13.5714 17.0625C13.5714 16.3275 14.1685 15.75 14.9286 15.75C15.6887 15.75 16.2857 16.3275 16.2857 17.0625C16.2857 17.7975 15.6887 18.375 14.9286 18.375C14.1685 18.375 13.5714 17.7975 13.5714 17.0625ZM13.5714 19.6875C13.5714 18.9525 14.1685 18.375 14.9286 18.375C15.6887 18.375 16.2857 18.9525 16.2857 19.6875C16.2857 20.4225 15.6887 21 14.9286 21C14.1685 21 13.5714 20.4225 13.5714 19.6875ZM16.2857 3.9375C16.2857 3.2025 16.8828 2.625 17.6429 2.625C18.4029 2.625 19 3.2025 19 3.9375C19 4.6725 18.4029 5.25 17.6429 5.25C16.8828 5.25 16.2857 4.6725 16.2857 3.9375ZM16.2857 6.5625C16.2857 5.8275 16.8828 5.25 17.6429 5.25C18.4029 5.25 19 5.8275 19 6.5625C19 7.2975 18.4029 7.875 17.6429 7.875C16.8828 7.875 16.2857 7.2975 16.2857 6.5625ZM16.2857 14.4375C16.2857 13.7025 16.8828 13.125 17.6429 13.125C18.4029 13.125 19 13.7025 19 14.4375C19 15.1725 18.4029 15.75 17.6429 15.75C16.8828 15.75 16.2857 15.1725 16.2857 14.4375ZM16.2857 17.0625C16.2857 16.3275 16.8828 15.75 17.6429 15.75C18.4029 15.75 19 16.3275 19 17.0625C19 17.7975 18.4029 18.375 17.6429 18.375C16.8828 18.375 16.2857 17.7975 16.2857 17.0625Z" fill="#F2F2F2"/>
</g>
<defs>
<clipPath id="clip0_139_18960">
<rect width="19" height="21" fill="white"/>
</clipPath>
</defs>
</svg>
